<?xml version="1.0" standalone="no"?>
<!DOCTYPE svg PUBLIC "-//W3C//DTD SVG 20010904//EN"
 "http://www.w3.org/TR/2001/REC-SVG-20010904/DTD/svg10.dtd">
<svg version="1.0" xmlns="http://www.w3.org/2000/svg"
 width="512.000000pt" height="512.000000pt" viewBox="0 0 512.000000 512.000000"
 preserveAspectRatio="xMidYMid meet">

<g transform="translate(0.000000,512.000000) scale(0.100000,-0.100000)"
fill="#ffffff" stroke="none">
<path d="M2490 5114 c-293 -37 -525 -139 -735 -323 -295 -257 -456 -630 -442
-1026 11 -310 110 -564 314 -807 125 -148 322 -291 501 -361 l42 -17 0 -360 0
-360 -137 0 c-76 0 -222 -3 -325 -7 l-188 -6 0 -170 0 -170 328 4 327 4 3
-162 2 -163 -307 0 c-170 0 -392 -3 -496 -7 l-187 -6 2 -166 3 -166 493 4 492
4 0 -137 0 -136 -325 0 -325 0 0 -173 0 -172 343 3 342 4 22 -40 c106 -187
378 -257 587 -150 65 33 141 112 172 181 l29 62 0 1134 0 1135 55 21 c180 70
321 163 461 304 192 192 304 398 361 664 30 142 30 368 -1 514 -56 268 -181
494 -379 685 -187 180 -394 288 -657 343 -78 16 -305 28 -375 19z m265 -519
c412 -72 701 -456 654 -870 -59 -526 -598 -850 -1087 -654 -147 58 -279 167
-372 306 -91 135 -125 259 -124 443 1 119 4 145 28 220 95 291 330 501 622
554 105 19 174 19 279 1z"/>
</g>
</svg>
