<?xml version="1.0" standalone="no"?>
<!DOCTYPE svg PUBLIC "-//W3C//DTD SVG 20010904//EN"
 "http://www.w3.org/TR/2001/REC-SVG-20010904/DTD/svg10.dtd">
<svg version="1.0" xmlns="http://www.w3.org/2000/svg"
 width="512.000000pt" height="512.000000pt" viewBox="0 0 512.000000 512.000000"
 preserveAspectRatio="xMidYMid meet">

<g transform="translate(0.000000,512.000000) scale(0.100000,-0.100000)"
fill="#ffffff" stroke="none">
<path d="M1436 4860 c-370 -59 -681 -289 -842 -625 -120 -250 -144 -519 -68
-782 142 -499 630 -845 1139 -809 608 44 1069 558 1042 1161 -13 283 -126 536
-326 736 -208 208 -458 316 -751 324 -74 2 -162 0 -194 -5z"/>
<path d="M598 2590 c-320 -259 -529 -630 -583 -1038 -22 -162 -21 -800 0 -891
39 -164 146 -297 296 -369 46 -23 111 -45 143 -51 40 -7 418 -11 1145 -11 901
0 1097 3 1153 15 68 14 174 61 216 95 l23 19 -61 73 c-162 193 -272 425 -316
668 -24 129 -24 373 0 495 45 230 130 417 290 640 30 42 -377 449 -419 419
-224 -161 -409 -245 -640 -290 -134 -26 -387 -24 -522 5 -197 41 -367 114
-530 227 -51 35 -96 64 -100 64 -5 0 -47 -32 -95 -70z"/>
<path d="M3846 2450 c-370 -59 -681 -289 -842 -625 -120 -249 -143 -520 -68
-782 142 -499 630 -845 1139 -809 608 44 1069 558 1042 1161 -13 283 -126 536
-326 736 -208 208 -458 316 -751 324 -74 2 -162 0 -194 -5z m246 -661 c48 -34
62 -73 66 -186 l4 -103 82 0 c140 0 201 -32 227 -119 11 -37 10 -47 -7 -89
-32 -76 -65 -92 -194 -92 l-108 0 -3 -107 c-5 -122 -21 -163 -77 -196 -64 -38
-163 -16 -202 45 -10 15 -16 61 -20 138 l-5 115 -115 5 c-77 4 -123 10 -138
20 -61 39 -83 138 -45 202 33 56 74 72 196 77 l107 3 0 107 c0 89 3 111 20
139 42 68 145 88 212 41z"/>
</g>
</svg>
